<svg width="205" height="24" viewBox="0 0 205 24" fill="none" xmlns="http://www.w3.org/2000/svg">
<path d="M5.57812 4H9.57812L11.5781 9L9.07812 10.5C10.1491 12.6715 11.9066 14.429 14.0781 15.5L15.5781 13L20.5781 15V19C20.5781 19.5304 20.3674 20.0391 19.9923 20.4142C19.6173 20.7893 19.1086 21 18.5781 21C14.6774 20.763 10.9983 19.1065 8.23495 16.3432C5.47163 13.5798 3.81517 9.90074 3.57812 6C3.57812 5.46957 3.78884 4.96086 4.16391 4.58579C4.53898 4.21071 5.04769 4 5.57812 4Z" stroke="black" stroke-width="2" stroke-linecap="round" stroke-linejoin="round"/>
<path d="M45.5941 12.366H41.9581V16.092H40.0501V12.366H36.4141V10.638H40.0501V6.912H41.9581V10.638H45.5941V12.366ZM51.0637 14.436C51.1837 15.036 51.4417 15.492 51.8377 15.804C52.2337 16.116 52.7677 16.272 53.4397 16.272C54.2917 16.272 54.9157 15.936 55.3117 15.264C55.7077 14.592 55.9057 13.446 55.9057 11.826C55.6177 12.234 55.2097 12.552 54.6817 12.78C54.1657 12.996 53.6017 13.104 52.9897 13.104C52.2097 13.104 51.5017 12.948 50.8657 12.636C50.2297 12.312 49.7257 11.838 49.3537 11.214C48.9937 10.578 48.8137 9.81 48.8137 8.91C48.8137 7.59 49.1977 6.54 49.9657 5.76C50.7457 4.968 51.8137 4.572 53.1697 4.572C54.8017 4.572 55.9597 5.118 56.6437 6.21C57.3397 7.29 57.6877 8.952 57.6877 11.196C57.6877 12.744 57.5557 14.01 57.2917 14.994C57.0397 15.978 56.5957 16.722 55.9597 17.226C55.3237 17.73 54.4417 17.982 53.3137 17.982C52.0297 17.982 51.0397 17.646 50.3437 16.974C49.6477 16.302 49.2577 15.456 49.1737 14.436H51.0637ZM53.3497 11.376C54.0697 11.376 54.6337 11.154 55.0417 10.71C55.4617 10.254 55.6717 9.654 55.6717 8.91C55.6717 8.082 55.4497 7.44 55.0057 6.984C54.5737 6.516 53.9797 6.282 53.2237 6.282C52.4677 6.282 51.8677 6.522 51.4237 7.002C50.9917 7.47 50.7757 8.088 50.7757 8.856C50.7757 9.588 50.9857 10.194 51.4057 10.674C51.8377 11.142 52.4857 11.376 53.3497 11.376ZM62.4895 14.436C62.6095 15.036 62.8675 15.492 63.2635 15.804C63.6595 16.116 64.1935 16.272 64.8655 16.272C65.7175 16.272 66.3415 15.936 66.7375 15.264C67.1335 14.592 67.3315 13.446 67.3315 11.826C67.0435 12.234 66.6355 12.552 66.1075 12.78C65.5915 12.996 65.0275 13.104 64.4155 13.104C63.6355 13.104 62.9275 12.948 62.2915 12.636C61.6555 12.312 61.1515 11.838 60.7795 11.214C60.4195 10.578 60.2395 9.81 60.2395 8.91C60.2395 7.59 60.6235 6.54 61.3915 5.76C62.1715 4.968 63.2395 4.572 64.5955 4.572C66.2275 4.572 67.3855 5.118 68.0695 6.21C68.7655 7.29 69.1135 8.952 69.1135 11.196C69.1135 12.744 68.9815 14.01 68.7175 14.994C68.4655 15.978 68.0215 16.722 67.3855 17.226C66.7495 17.73 65.8675 17.982 64.7395 17.982C63.4555 17.982 62.4655 17.646 61.7695 16.974C61.0735 16.302 60.6835 15.456 60.5995 14.436H62.4895ZM64.7755 11.376C65.4955 11.376 66.0595 11.154 66.4675 10.71C66.8875 10.254 67.0975 9.654 67.0975 8.91C67.0975 8.082 66.8755 7.44 66.4315 6.984C65.9995 6.516 65.4055 6.282 64.6495 6.282C63.8935 6.282 63.2935 6.522 62.8495 7.002C62.4175 7.47 62.2015 8.088 62.2015 8.856C62.2015 9.588 62.4115 10.194 62.8315 10.674C63.2635 11.142 63.9115 11.376 64.7755 11.376ZM73.5733 11.142C72.3253 10.518 71.7013 9.534 71.7013 8.19C71.7013 7.542 71.8633 6.948 72.1873 6.408C72.5113 5.868 72.9973 5.442 73.6453 5.13C74.2933 4.806 75.0853 4.644 76.0213 4.644C76.9453 4.644 77.7313 4.806 78.3793 5.13C79.0393 5.442 79.5313 5.868 79.8553 6.408C80.1793 6.948 80.3413 7.542 80.3413 8.19C80.3413 8.862 80.1673 9.456 79.8193 9.972C79.4833 10.476 79.0333 10.866 78.4693 11.142C79.1533 11.394 79.6933 11.808 80.0893 12.384C80.4853 12.948 80.6833 13.614 80.6833 14.382C80.6833 15.162 80.4853 15.852 80.0893 16.452C79.6933 17.052 79.1413 17.514 78.4333 17.838C77.7253 18.162 76.9213 18.324 76.0213 18.324C75.1213 18.324 74.3173 18.162 73.6093 17.838C72.9133 17.514 72.3673 17.052 71.9713 16.452C71.5753 15.852 71.3773 15.162 71.3773 14.382C71.3773 13.602 71.5753 12.93 71.9713 12.366C72.3673 11.802 72.9013 11.394 73.5733 11.142ZM78.3793 8.442C78.3793 7.77 78.1693 7.254 77.7493 6.894C77.3293 6.534 76.7533 6.354 76.0213 6.354C75.3013 6.354 74.7313 6.534 74.3113 6.894C73.8913 7.254 73.6813 7.776 73.6813 8.46C73.6813 9.06 73.8973 9.552 74.3293 9.936C74.7733 10.308 75.3373 10.494 76.0213 10.494C76.7053 10.494 77.2693 10.302 77.7133 9.918C78.1573 9.534 78.3793 9.042 78.3793 8.442ZM76.0213 12.042C75.2293 12.042 74.5813 12.24 74.0773 12.636C73.5853 13.02 73.3393 13.578 73.3393 14.31C73.3393 14.994 73.5793 15.552 74.0593 15.984C74.5393 16.404 75.1933 16.614 76.0213 16.614C76.8373 16.614 77.4793 16.398 77.9473 15.966C78.4273 15.534 78.6673 14.982 78.6673 14.31C78.6673 13.59 78.4213 13.032 77.9293 12.636C77.4493 12.24 76.8133 12.042 76.0213 12.042ZM90.0696 14.436C90.1896 15.036 90.4476 15.492 90.8436 15.804C91.2396 16.116 91.7736 16.272 92.4456 16.272C93.2976 16.272 93.9216 15.936 94.3176 15.264C94.7136 14.592 94.9116 13.446 94.9116 11.826C94.6236 12.234 94.2156 12.552 93.6876 12.78C93.1716 12.996 92.6076 13.104 91.9956 13.104C91.2156 13.104 90.5076 12.948 89.8716 12.636C89.2356 12.312 88.7316 11.838 88.3596 11.214C87.9996 10.578 87.8196 9.81 87.8196 8.91C87.8196 7.59 88.2036 6.54 88.9716 5.76C89.7516 4.968 90.8196 4.572 92.1756 4.572C93.8076 4.572 94.9656 5.118 95.6496 6.21C96.3456 7.29 96.6936 8.952 96.6936 11.196C96.6936 12.744 96.5616 14.01 96.2976 14.994C96.0456 15.978 95.6016 16.722 94.9656 17.226C94.3296 17.73 93.4476 17.982 92.3196 17.982C91.0356 17.982 90.0456 17.646 89.3496 16.974C88.6536 16.302 88.2636 15.456 88.1796 14.436H90.0696ZM92.3556 11.376C93.0756 11.376 93.6396 11.154 94.0476 10.71C94.4676 10.254 94.6776 9.654 94.6776 8.91C94.6776 8.082 94.4556 7.44 94.0116 6.984C93.5796 6.516 92.9856 6.282 92.2296 6.282C91.4736 6.282 90.8736 6.522 90.4296 7.002C89.9976 7.47 89.7816 8.088 89.7816 8.856C89.7816 9.588 89.9916 10.194 90.4116 10.674C90.8436 11.142 91.4916 11.376 92.3556 11.376ZM98.9394 11.268C98.9394 9.192 99.2874 7.572 99.9834 6.408C100.691 5.232 101.903 4.644 103.619 4.644C105.335 4.644 106.541 5.232 107.237 6.408C107.945 7.572 108.299 9.192 108.299 11.268C108.299 13.368 107.945 15.012 107.237 16.2C106.541 17.376 105.335 17.964 103.619 17.964C101.903 17.964 100.691 17.376 99.9834 16.2C99.2874 15.012 98.9394 13.368 98.9394 11.268ZM106.283 11.268C106.283 10.296 106.217 9.474 106.085 8.802C105.965 8.13 105.713 7.584 105.329 7.164C104.945 6.732 104.375 6.516 103.619 6.516C102.863 6.516 102.293 6.732 101.909 7.164C101.525 7.584 101.267 8.13 101.135 8.802C101.015 9.474 100.955 10.296 100.955 11.268C100.955 12.276 101.015 13.122 101.135 13.806C101.255 14.49 101.507 15.042 101.891 15.462C102.287 15.882 102.863 16.092 103.619 16.092C104.375 16.092 104.945 15.882 105.329 15.462C105.725 15.042 105.983 14.49 106.103 13.806C106.223 13.122 106.283 12.276 106.283 11.268ZM115.146 11.268C115.146 9.192 115.494 7.572 116.19 6.408C116.898 5.232 118.11 4.644 119.826 4.644C121.542 4.644 122.748 5.232 123.444 6.408C124.152 7.572 124.506 9.192 124.506 11.268C124.506 13.368 124.152 15.012 123.444 16.2C122.748 17.376 121.542 17.964 119.826 17.964C118.11 17.964 116.898 17.376 116.19 16.2C115.494 15.012 115.146 13.368 115.146 11.268ZM122.49 11.268C122.49 10.296 122.424 9.474 122.292 8.802C122.172 8.13 121.92 7.584 121.536 7.164C121.152 6.732 120.582 6.516 119.826 6.516C119.07 6.516 118.5 6.732 118.116 7.164C117.732 7.584 117.474 8.13 117.342 8.802C117.222 9.474 117.162 10.296 117.162 11.268C117.162 12.276 117.222 13.122 117.342 13.806C117.462 14.49 117.714 15.042 118.098 15.462C118.494 15.882 119.07 16.092 119.826 16.092C120.582 16.092 121.152 15.882 121.536 15.462C121.932 15.042 122.19 14.49 122.31 13.806C122.43 13.122 122.49 12.276 122.49 11.268ZM126.678 11.268C126.678 9.192 127.026 7.572 127.722 6.408C128.43 5.232 129.642 4.644 131.358 4.644C133.074 4.644 134.28 5.232 134.976 6.408C135.684 7.572 136.038 9.192 136.038 11.268C136.038 13.368 135.684 15.012 134.976 16.2C134.28 17.376 133.074 17.964 131.358 17.964C129.642 17.964 128.43 17.376 127.722 16.2C127.026 15.012 126.678 13.368 126.678 11.268ZM134.022 11.268C134.022 10.296 133.956 9.474 133.824 8.802C133.704 8.13 133.452 7.584 133.068 7.164C132.684 6.732 132.114 6.516 131.358 6.516C130.602 6.516 130.032 6.732 129.648 7.164C129.264 7.584 129.006 8.13 128.874 8.802C128.754 9.474 128.694 10.296 128.694 11.268C128.694 12.276 128.754 13.122 128.874 13.806C128.994 14.49 129.246 15.042 129.63 15.462C130.026 15.882 130.602 16.092 131.358 16.092C132.114 16.092 132.684 15.882 133.068 15.462C133.464 15.042 133.722 14.49 133.842 13.806C133.962 13.122 134.022 12.276 134.022 11.268ZM138.209 11.268C138.209 9.192 138.557 7.572 139.253 6.408C139.961 5.232 141.173 4.644 142.889 4.644C144.605 4.644 145.811 5.232 146.507 6.408C147.215 7.572 147.569 9.192 147.569 11.268C147.569 13.368 147.215 15.012 146.507 16.2C145.811 17.376 144.605 17.964 142.889 17.964C141.173 17.964 139.961 17.376 139.253 16.2C138.557 15.012 138.209 13.368 138.209 11.268ZM145.553 11.268C145.553 10.296 145.487 9.474 145.355 8.802C145.235 8.13 144.983 7.584 144.599 7.164C144.215 6.732 143.645 6.516 142.889 6.516C142.133 6.516 141.563 6.732 141.179 7.164C140.795 7.584 140.537 8.13 140.405 8.802C140.285 9.474 140.225 10.296 140.225 11.268C140.225 12.276 140.285 13.122 140.405 13.806C140.525 14.49 140.777 15.042 141.161 15.462C141.557 15.882 142.133 16.092 142.889 16.092C143.645 16.092 144.215 15.882 144.599 15.462C144.995 15.042 145.253 14.49 145.373 13.806C145.493 13.122 145.553 12.276 145.553 11.268ZM154.416 11.268C154.416 9.192 154.764 7.572 155.46 6.408C156.168 5.232 157.38 4.644 159.096 4.644C160.812 4.644 162.018 5.232 162.714 6.408C163.422 7.572 163.776 9.192 163.776 11.268C163.776 13.368 163.422 15.012 162.714 16.2C162.018 17.376 160.812 17.964 159.096 17.964C157.38 17.964 156.168 17.376 155.46 16.2C154.764 15.012 154.416 13.368 154.416 11.268ZM161.76 11.268C161.76 10.296 161.694 9.474 161.562 8.802C161.442 8.13 161.19 7.584 160.806 7.164C160.422 6.732 159.852 6.516 159.096 6.516C158.34 6.516 157.77 6.732 157.386 7.164C157.002 7.584 156.744 8.13 156.612 8.802C156.492 9.474 156.432 10.296 156.432 11.268C156.432 12.276 156.492 13.122 156.612 13.806C156.732 14.49 156.984 15.042 157.368 15.462C157.764 15.882 158.34 16.092 159.096 16.092C159.852 16.092 160.422 15.882 160.806 15.462C161.202 15.042 161.46 14.49 161.58 13.806C161.7 13.122 161.76 12.276 161.76 11.268ZM165.947 11.268C165.947 9.192 166.295 7.572 166.991 6.408C167.699 5.232 168.911 4.644 170.627 4.644C172.343 4.644 173.549 5.232 174.245 6.408C174.953 7.572 175.307 9.192 175.307 11.268C175.307 13.368 174.953 15.012 174.245 16.2C173.549 17.376 172.343 17.964 170.627 17.964C168.911 17.964 167.699 17.376 166.991 16.2C166.295 15.012 165.947 13.368 165.947 11.268ZM173.291 11.268C173.291 10.296 173.225 9.474 173.093 8.802C172.973 8.13 172.721 7.584 172.337 7.164C171.953 6.732 171.383 6.516 170.627 6.516C169.871 6.516 169.301 6.732 168.917 7.164C168.533 7.584 168.275 8.13 168.143 8.802C168.023 9.474 167.963 10.296 167.963 11.268C167.963 12.276 168.023 13.122 168.143 13.806C168.263 14.49 168.515 15.042 168.899 15.462C169.295 15.882 169.871 16.092 170.627 16.092C171.383 16.092 171.953 15.882 172.337 15.462C172.733 15.042 172.991 14.49 173.111 13.806C173.231 13.122 173.291 12.276 173.291 11.268ZM182.154 11.268C182.154 9.192 182.502 7.572 183.198 6.408C183.906 5.232 185.118 4.644 186.834 4.644C188.55 4.644 189.756 5.232 190.452 6.408C191.16 7.572 191.514 9.192 191.514 11.268C191.514 13.368 191.16 15.012 190.452 16.2C189.756 17.376 188.55 17.964 186.834 17.964C185.118 17.964 183.906 17.376 183.198 16.2C182.502 15.012 182.154 13.368 182.154 11.268ZM189.498 11.268C189.498 10.296 189.432 9.474 189.3 8.802C189.18 8.13 188.928 7.584 188.544 7.164C188.16 6.732 187.59 6.516 186.834 6.516C186.078 6.516 185.508 6.732 185.124 7.164C184.74 7.584 184.482 8.13 184.35 8.802C184.23 9.474 184.17 10.296 184.17 11.268C184.17 12.276 184.23 13.122 184.35 13.806C184.47 14.49 184.722 15.042 185.106 15.462C185.502 15.882 186.078 16.092 186.834 16.092C187.59 16.092 188.16 15.882 188.544 15.462C188.94 15.042 189.198 14.49 189.318 13.806C189.438 13.122 189.498 12.276 189.498 11.268ZM193.685 11.268C193.685 9.192 194.033 7.572 194.729 6.408C195.437 5.232 196.649 4.644 198.365 4.644C200.081 4.644 201.287 5.232 201.983 6.408C202.691 7.572 203.045 9.192 203.045 11.268C203.045 13.368 202.691 15.012 201.983 16.2C201.287 17.376 200.081 17.964 198.365 17.964C196.649 17.964 195.437 17.376 194.729 16.2C194.033 15.012 193.685 13.368 193.685 11.268ZM201.029 11.268C201.029 10.296 200.963 9.474 200.831 8.802C200.711 8.13 200.459 7.584 200.075 7.164C199.691 6.732 199.121 6.516 198.365 6.516C197.609 6.516 197.039 6.732 196.655 7.164C196.271 7.584 196.013 8.13 195.881 8.802C195.761 9.474 195.701 10.296 195.701 11.268C195.701 12.276 195.761 13.122 195.881 13.806C196.001 14.49 196.253 15.042 196.637 15.462C197.033 15.882 197.609 16.092 198.365 16.092C199.121 16.092 199.691 15.882 200.075 15.462C200.471 15.042 200.729 14.49 200.849 13.806C200.969 13.122 201.029 12.276 201.029 11.268Z" fill="black"/>
</svg>
