<svg width="35" height="35" viewBox="0 0 35 35" fill="none" xmlns="http://www.w3.org/2000/svg">
<path d="M31.7448 6.18012C30.3282 6.87429 28.9398 7.1562 27.4948 7.58262C25.9067 5.79054 23.5522 5.69137 21.2898 6.53854C19.0274 7.3857 17.5456 9.45687 17.5782 11.8326V13.2493C12.9811 13.3669 8.88692 11.273 6.24483 7.58262C6.24483 7.58262 0.320332 18.1127 11.9115 23.166C9.2595 24.9325 6.61458 26.124 3.4115 25.9993C8.09783 28.5535 13.2049 29.4319 17.6263 28.1484C22.698 26.675 26.8658 22.8741 28.4652 17.1805C28.9424 15.4489 29.1793 13.6599 29.1693 11.8638C29.1665 11.511 31.3085 7.93679 31.7448 6.1787V6.18012Z" stroke="white" stroke-width="2" stroke-linecap="round" stroke-linejoin="round"/>
</svg>
