<svg width="35" height="35" viewBox="0 0 35 35" fill="none" xmlns="http://www.w3.org/2000/svg">
<path d="M13.3281 14.6659C13.3281 14.8538 13.4028 15.0339 13.5356 15.1668C13.6684 15.2996 13.8486 15.3742 14.0365 15.3742C14.2243 15.3742 14.4045 15.2996 14.5373 15.1668C14.6702 15.0339 14.7448 14.8538 14.7448 14.6659V13.2492C14.7448 13.0614 14.6702 12.8812 14.5373 12.7484C14.4045 12.6155 14.2243 12.5409 14.0365 12.5409C13.8486 12.5409 13.6684 12.6155 13.5356 12.7484C13.4028 12.8812 13.3281 13.0614 13.3281 13.2492V14.6659ZM13.3281 14.6659C13.3281 16.5445 14.0744 18.3462 15.4028 19.6746C16.7312 21.003 18.5328 21.7492 20.4115 21.7492M20.4115 21.7492H21.8281C22.016 21.7492 22.1962 21.6746 22.329 21.5418C22.4618 21.4089 22.5365 21.2288 22.5365 21.0409C22.5365 20.853 22.4618 20.6729 22.329 20.54C22.1962 20.4072 22.016 20.3326 21.8281 20.3326H20.4115C20.2236 20.3326 20.0434 20.4072 19.9106 20.54C19.7778 20.6729 19.7031 20.853 19.7031 21.0409C19.7031 21.2288 19.7778 21.4089 19.9106 21.5418C20.0434 21.6746 20.2236 21.7492 20.4115 21.7492ZM4.82812 30.2495L7.16563 24.8662C5.37731 22.3276 4.5769 19.2237 4.9146 16.1368C5.25231 13.05 6.7049 10.1926 8.99979 8.10068C11.2947 6.00881 14.2741 4.82633 17.3789 4.77517C20.4837 4.72401 23.5005 5.80768 25.8631 7.82281C28.2256 9.83794 29.7716 12.646 30.2108 15.72C30.65 18.794 29.9523 21.9227 28.2486 24.5188C26.5449 27.1149 23.9523 29.0001 20.9574 29.8204C17.9625 30.6408 14.7712 30.34 11.9823 28.9745L4.82812 30.2495Z" stroke="white" stroke-width="2" stroke-linecap="round" stroke-linejoin="round"/>
</svg>
